# xmcd
#
# Track frame offsets:
#	150
#	9596
#	21403
#	33472
#	44386
#	55779
#	65067
#	76559
#	87905
#	97574
#	108549
#	118394
#	128375
#	139774
#	149876
#	161781
#	172158
#	182548
#	192866
#	203630
#	215265
#	225312
#	237531
#	250684
#	262792
#	272703
#	283837
#	294742
#	306278
#	316594
#	326797
#	339461
#
# Disc length: 4652 seconds
#
# Revision: 1
# Processed by: cddbd v1.5.2PL0 Copyright (c) Steve Scherf et al.
# Submitted via: EZCDAudioConverter 7.1.1.1
#
DISCID=d0122a20
DTITLE=Various Artist - CACT CD 5009 - Rockin' Hillbilly - Vol. 10
DYEAR=1900
DGENRE=Hillbilly
TTITLE0=Glenn Barber - Livin' High and Wide
TTITLE1=Rod Morris - Ghost Of Casey Jones
TTITLE2=Wade Holmes - Fat 40 And Frustrated
TTITLE3=Leon Payne - Full Time Job
TTITLE4=Dub Dickerson - Sweet Bunch Of Bitterweeds
TTITLE5=Bill Mack - Sue Suzie Boogie
TTITLE6=Jimmy and Johnny - I'm Gonna Lose
TTITLE7=Jack Cardwell - I'm Not Lazy I'm Just Tired
TTITLE8=Eddie Noack - Gentlemen Prefer Blondes
TTITLE9=Gene Dunn - I'm A Hillbilly At Heart
TTITLE10=Gayle Griffith - Rockin' And A Knockin'
TTITLE11=Jimmy Lee - I'm Diggin' A Hole To Bury My Heart
TTITLE12=Curt Gibson - Formula For Love
TTITLE13=Jim Oertling - Louisiana Gambler
TTITLE14=Benny Barnes - Diesel Smoke
TTITLE15=Don Windle - When My Baby Comes Home To Me
TTITLE16=Lloyd Weaver - One Wheel Draggin'
TTITLE17=George McCormack - Blues Moved In This Morning
TTITLE18=Gene McKnown - I'm Still Wonderin' Why
TTITLE19=Blackie Crawford - Jump Jack Jump
TTITLE20=Gene Henslee - What Will I Do
TTITLE21=Bill Long - Your Daddy Is A Railroad Man
TTITLE22=Red Perkins - A Long-Necked Bottle
TTITLE23=Shorty Barnhill - I'm A Sad Sack
TTITLE24=Jimmy Simpson - I'm A High Toned Papa
TTITLE25=Billy Briggs - Full Blooded Texan
TTITLE26=Gayle Griffith - Anchor My Heart
TTITLE27=Ann Jones - You Won't Find Me Singing The Blues
TTITLE28=Jerrry Dove - You're Wasting Your Time
TTITLE29=Cliff Clay - Sugar Baby
TTITLE30=Ray Smith - Lonesome Truck Divers Blues
TTITLE31=Jimmy Dean - Tell Her Lies and Feed Her Candy
EXTD=
EXTT0=
EXTT1=
EXTT2=
EXTT3=
EXTT4=
EXTT5=
EXTT6=
EXTT7=
EXTT8=
EXTT9=
EXTT10=
EXTT11=
EXTT12=
EXTT13=
EXTT14=
EXTT15=
EXTT16=
EXTT17=
EXTT18=
EXTT19=
EXTT20=
EXTT21=
EXTT22=
EXTT23=
EXTT24=
EXTT25=
EXTT26=
EXTT27=
EXTT28=
EXTT29=
EXTT30=
EXTT31=
PLAYORDER=
